<svg width="810" height="218" viewBox="0 0 810 218" fill="none" xmlns="http://www.w3.org/2000/svg">
<path d="M61.744 5.39498e-06C53.5943 0.0406502 45.5323 1.69488 38.0186 4.86851C30.5049 8.04214 23.6866 12.6733 17.953 18.4966C12.2195 24.32 7.68303 31.2219 4.60275 38.8082C1.52247 46.3945 -0.041225 54.5165 0.000826121 62.7105V83.4242H50.1675V53.4142C50.167 52.0049 50.4426 50.6092 50.9787 49.307C51.5148 48.0048 52.3008 46.8216 53.2919 45.8249C54.283 44.8282 55.4598 44.038 56.7548 43.4987C58.0499 42.9594 59.438 42.6821 60.8397 42.6823H62.6483C64.0502 42.6821 65.4383 42.9594 66.7335 43.4987C68.0287 44.0379 69.2055 44.8282 70.1968 45.8249C71.188 46.8215 71.9743 48.0048 72.5106 49.307C73.047 50.6092 73.3229 52.0048 73.3226 53.4142V133.864C79.9107 133.864 86.4343 132.559 92.5209 130.025C98.6075 127.49 104.138 123.775 108.797 119.091C113.455 114.407 117.15 108.847 119.671 102.727C122.192 96.6074 123.49 90.048 123.489 83.4242V62.7105C123.525 46.1084 117.023 30.167 105.404 18.3705C99.7026 12.5493 92.9061 7.92707 85.4104 4.77315C77.9147 1.61924 69.8696 -0.00341464 61.744 5.39498e-06Z" fill="white"/>
<path d="M62.6509 174.599H60.8423C59.4407 174.599 58.0529 174.322 56.7579 173.783C55.463 173.244 54.2864 172.453 53.2953 171.457C52.3042 170.46 51.5182 169.278 50.982 167.976C50.4457 166.674 50.1699 165.278 50.1701 163.869V83.4198C43.582 83.4193 37.0582 84.7234 30.9714 87.258C24.8847 89.7926 19.3542 93.5079 14.6957 98.1917C10.0372 102.876 6.34184 108.436 3.82093 114.556C1.30001 120.676 0.0028537 127.235 0.00342061 133.859V154.284C-0.080156 162.49 1.45519 170.631 4.52065 178.237C7.5861 185.843 12.1208 192.762 17.8626 198.594C23.6044 204.427 30.4392 209.057 37.9719 212.216C45.5046 215.376 53.5857 217.003 61.7477 217.003C69.9097 217.003 77.9907 215.376 85.5234 212.216C93.0561 209.057 99.8909 204.427 105.633 198.594C111.374 192.762 115.909 185.843 118.975 178.237C122.04 170.631 123.575 162.49 123.492 154.284V133.859H73.3252V163.869C73.3252 165.278 73.049 166.674 72.5126 167.976C71.9761 169.278 71.1898 170.461 70.1986 171.457C69.2073 172.454 68.0306 173.244 66.7355 173.783C65.4405 174.322 64.0526 174.599 62.6509 174.599Z" fill="white"/>
<path d="M209.249 63.6544H191.666V153.337H243.272V136.429H209.251L209.249 63.6544Z" fill="white"/>
<path d="M299.592 96.834C297.111 93.7353 293.936 91.2719 290.325 89.6462C286.715 88.0205 282.772 87.2786 278.821 87.4816C274.693 87.4489 270.606 88.3072 266.836 89.9985C263.066 91.6897 259.701 94.1747 256.968 97.2853C251.1 103.896 247.857 112.447 247.857 121.308C247.857 130.169 251.1 138.72 256.968 145.331C259.702 148.44 263.067 150.924 266.837 152.615C270.607 154.305 274.694 155.163 278.821 155.131C287.742 155.131 294.665 152.013 299.592 145.778V153.338H316.031V89.2801H299.592V96.834ZM294.561 134.31C292.903 135.979 290.922 137.288 288.742 138.159C286.561 139.029 284.227 139.441 281.882 139.37C279.546 139.445 277.219 139.035 275.048 138.164C272.877 137.294 270.908 135.982 269.265 134.31C266.065 130.743 264.294 126.109 264.294 121.305C264.294 116.501 266.065 111.867 269.265 108.3C270.909 106.63 272.878 105.319 275.049 104.448C277.22 103.578 279.546 103.167 281.882 103.241C284.226 103.171 286.561 103.584 288.741 104.454C290.921 105.324 292.902 106.632 294.561 108.3C297.797 111.85 299.592 116.49 299.592 121.305C299.592 126.12 297.797 130.76 294.561 134.31Z" fill="white"/>
<path d="M358.385 132.332L341.767 89.2767H323.8L349.914 151.288C348.822 154.988 346.672 158.285 343.733 160.769C340.645 162.874 336.94 163.868 333.219 163.589V178.965C340.474 179.64 347.727 177.659 353.646 173.386C359.113 169.237 363.505 162.59 366.821 153.445L390.05 89.2809H372.465L358.385 132.332Z" fill="white"/>
<path d="M425.623 87.4841C421.142 87.3257 416.676 88.1035 412.509 89.7689C408.343 91.4344 404.565 93.9511 401.415 97.1596C395.332 103.734 391.961 112.387 391.984 121.366C392.007 130.345 395.423 138.98 401.54 145.523C407.912 151.927 416.365 155.129 426.898 155.131C439.128 155.131 448.387 150.562 454.676 141.425L441.425 133.735C439.74 135.885 437.561 137.592 435.075 138.708C432.589 139.824 429.87 140.316 427.153 140.141C417.382 140.141 411.393 136.128 409.184 128.1H457.225C457.635 125.859 457.849 123.585 457.862 121.306C458.105 112.383 454.831 103.726 448.752 97.2206C445.808 94.0362 442.222 91.52 438.233 89.841C434.244 88.1619 429.945 87.3585 425.623 87.4841ZM408.932 115.287C409.659 111.523 411.69 108.14 414.664 105.74C417.826 103.389 421.691 102.192 425.621 102.345C429.213 102.298 432.723 103.423 435.626 105.551C438.714 107.941 440.785 111.42 441.423 115.285L408.932 115.287Z" fill="white"/>
<path d="M485.766 100.297V89.2761H469.328V153.336H485.766V122.717C485.766 116.567 487.741 112.168 491.691 109.519C495.646 106.871 500.431 105.776 505.136 106.445V88.0004C501.004 87.9477 496.934 89.0094 493.348 91.0752C489.807 93.1409 487.118 96.412 485.766 100.297Z" fill="white"/>
<path d="M585.283 77.5246V63.6544H526.813V80.567H563.004L525.872 139.213V153.334H585.993V136.427H548.147L585.283 77.5246Z" fill="white"/>
<path d="M624.799 87.4841C620.317 87.3257 615.851 88.1035 611.684 89.769C607.517 91.4344 603.739 93.9511 600.588 97.1597C594.505 103.734 591.133 112.387 591.157 121.367C591.181 130.346 594.598 138.981 600.716 145.523C607.088 151.927 615.54 155.129 626.072 155.131C638.302 155.131 647.561 150.562 653.852 141.425L640.599 133.735C638.914 135.885 636.735 137.591 634.249 138.707C631.763 139.823 629.045 140.315 626.329 140.141C616.557 140.141 610.568 136.128 608.362 128.1H656.403C656.811 125.859 657.024 123.585 657.037 121.306C657.281 112.383 654.006 103.726 647.928 97.2206C644.984 94.0361 641.398 91.5201 637.409 89.841C633.42 88.1619 629.121 87.3584 624.799 87.4841ZM608.107 115.287C608.835 111.522 610.867 108.139 613.842 105.74C617.004 103.388 620.869 102.191 624.799 102.345C628.391 102.297 631.902 103.422 634.804 105.551C637.892 107.941 639.962 111.42 640.599 115.285L608.107 115.287Z" fill="white"/>
<path d="M684.947 100.298V89.2767H668.508V153.337H684.947V122.717C684.947 116.568 686.921 112.169 690.871 109.52C694.825 106.871 699.61 105.777 704.314 106.445V88.0011C700.183 87.9488 696.113 89.0105 692.528 91.0758C688.987 93.1413 686.298 96.4124 684.947 100.298Z" fill="white"/>
<path d="M741.774 87.4838C734.061 87.5693 726.615 90.3363 720.701 95.3147C714.787 100.293 710.769 107.176 709.329 114.795C707.889 122.414 709.117 130.299 712.803 137.111C716.489 143.924 722.406 149.243 729.55 152.167C736.695 155.09 744.625 155.438 751.995 153.15C759.365 150.862 765.72 146.08 769.982 139.616C774.243 133.152 776.148 125.405 775.373 117.689C774.598 109.973 771.19 102.764 765.729 97.2875C762.617 94.0909 758.885 91.5711 754.764 89.8847C750.643 88.1982 746.222 87.3811 741.774 87.4838ZM754.133 133.992C752.521 135.628 750.593 136.915 748.467 137.773C746.342 138.631 744.064 139.043 741.774 138.982C739.492 139.047 737.221 138.638 735.104 137.779C732.987 136.92 731.07 135.631 729.472 133.992C726.317 130.529 724.566 126.003 724.566 121.307C724.566 116.611 726.317 112.085 729.472 108.623C731.07 106.984 732.988 105.695 735.104 104.836C737.221 103.977 739.492 103.567 741.774 103.632C744.063 103.572 746.341 103.984 748.467 104.842C750.593 105.7 752.521 106.987 754.133 108.623C757.328 112.066 759.105 116.599 759.105 121.307C759.105 126.015 757.328 130.549 754.133 133.992Z" fill="white"/>
<path d="M810 133.605H789.993V153.336H810V133.605Z" fill="white"/>
</svg>
