<svg xmlns="http://www.w3.org/2000/svg" width="172" height="168" viewBox="0 0 172 168" fill="none">
  <g clip-path="url(#clip0_76_173)">
    <path d="M85.75 168C133.27 168 171.5 130.55 171.5 84C171.5 37.4497 133.27 0 85.75 0C38.2299 0 0 37.4497 0 84C0 130.55 38.2299 168 85.75 168Z" fill="#09FBD3"/>
    <path d="M109.331 97.2997C109.331 85.05 101.828 80.85 86.8218 79.1003C76.1031 77.7 73.9593 74.9003 73.9593 69.9997C73.9593 65.0992 77.5325 61.95 84.6781 61.95C91.1093 61.95 94.6825 64.05 96.4687 69.3C96.8263 70.35 97.8982 71.0497 98.97 71.0497H104.686C106.116 71.0497 107.187 69.9997 107.187 68.6003V68.25C105.758 60.5497 99.3267 54.6 91.1093 53.9003V45.5003C91.1093 44.1 90.0375 43.05 88.2513 42.6997H82.8919C81.4625 42.6997 80.3906 43.7497 80.033 45.5003V53.55C69.3143 54.9503 62.5263 61.95 62.5263 70.7003C62.5263 82.2503 69.6718 86.7997 84.6781 88.5503C94.6825 90.3 97.8982 92.4 97.8982 98.0003C97.8982 103.601 92.8955 107.45 86.1075 107.45C76.8174 107.45 73.6018 103.6 72.5299 98.3497C72.1732 96.9503 71.1013 96.2497 70.0294 96.2497H63.9549C62.5263 96.2497 61.4544 97.2997 61.4544 98.7V99.0503C62.883 107.8 68.6 114.1 80.3906 115.85V124.25C80.3906 125.65 81.4625 126.7 83.2486 127.05H88.608C90.0374 127.05 91.1093 126 91.4669 124.25V115.85C102.186 114.1 109.331 106.75 109.331 97.2997Z" fill="#1E1E1E"/>
    <path d="M67.5281 134.05C39.6594 124.25 25.3674 93.8003 35.7295 66.8498C41.0888 52.1498 52.8795 40.95 67.5281 35.7C68.9576 35.0003 69.6719 33.9503 69.6719 32.1997V27.3C69.6719 25.8997 68.9576 24.8497 67.5281 24.5003C67.1706 24.5003 66.4563 24.5003 66.0987 24.8497C32.1563 35.3497 13.5768 70.7003 24.2956 103.95C30.7268 123.55 46.0906 138.6 66.0987 144.9C67.5281 145.6 68.9576 144.9 69.3143 143.5C69.6719 143.15 69.6719 142.8 69.6719 142.1V137.2C69.6719 136.15 68.6 134.75 67.5281 134.05ZM105.401 24.8497C103.972 24.15 102.542 24.8497 102.186 26.25C101.828 26.6003 101.828 26.9497 101.828 27.6503V32.55C101.828 33.9503 102.9 35.3497 103.972 36.0503C131.841 45.8498 146.133 76.2998 135.771 103.25C130.411 117.95 118.621 129.15 103.972 134.4C102.542 135.1 101.828 136.15 101.828 137.9V142.8C101.828 144.2 102.542 145.25 103.972 145.6C104.329 145.6 105.044 145.6 105.401 145.25C139.344 134.75 157.923 99.3998 147.204 66.15C140.773 46.2 125.052 31.1497 105.401 24.8497Z" fill="#1E1E1E"/>
  </g>
  <defs>
    <clipPath id="clip0_76_173">
      <rect width="171.5" height="168" fill="white"/>
    </clipPath>
  </defs>
</svg>